{"title":"Vampires: Lucas Rising (2016) 1080P WEB-DL AAC2 0 H 264","uid":15604782,"size":3848804595,"categoryP":"video","categoryS":"hd___movies","magnet":"?xt=urn:btih:608404f4412be53d6b035114c3020e0959ef64c3&amp;dn=Vampires%3A+Lucas+Rising+%282016%29+1080P+WEB-DL+AAC2+0+H+264&amp;tr=udp%3A%2F%2Ftracker.leechers-paradise.org%3A6969&amp;tr=udp%3A%2F%2Fzer0day.ch%3A1337&amp;tr=udp%3A%2F%2Fopen.demonii.com%3A1337&amp;tr=udp%3A%2F%2Ftracker.coppersurfer.tk%3A6969&amp;tr=udp%3A%2F%2Fexodus.desync.com%3A6969","seeders":1,"leechers":0,"uploader":"jmanwf","files":1,"time":1471705046,"description":"After having his true love Toby snatched from his arms and dragged into hell's realm, Lucas followed in vain searching and fighting his way through the demonic hordes in the underworld. A year later, Lucas is summoned back to earth by his immortal friend Mikal to help stop Lilith, the Queen Mother of the Vampires, and her devilish plan to create a master vampire race using students from an esteemed college. With the help of a powerful witch and her coven, Lucas continues his search for his immortal lover Toby along with trying to stop Lilithâ™s evil plan.\r\n\r\n\r\nVideo\r\nID : 2\r\nFormat : AVC\r\nFormat/Info : Advanced Video Codec\r\nFormat profile :   \r\nFormat settings, CABAC : Yes\r\nFormat settings, ReFrames : 4 frames\r\nCodec ID : V_MPEG4/ISO/AVC\r\nDuration : 1h 48mn\r\nBit rate : 4 611 Kbps\r\nWidth : 1 912 pixels\r\nHeight : 896 pixels\r\nDisplay aspect ratio : 2.134\r\nFrame rate mode : Constant\r\nFrame rate : 23.976 fps\r\nColor space : YUV\r\nChroma subsampling : 4:2:0\r\nBit depth : 8 bits\r\nScan type : Progressive\r\nBits/(Pixel*Frame) : 0.112\r\nStream size : 3.49 GiB (97%)\r\nLanguage : English\r\nDefault : Yes\r\nForced : No\r\nColor range : Limited\r\nColor primaries : BT.709\r\nTransfer characteristics : BT.709\r\nMatrix coefficients : BT.709\r\n\r\nAudio\r\nID : 1\r\nFormat : AAC\r\nFormat/Info : Advanced Audio Codec\r\nFormat profile : LC\r\nCodec ID : A_AAC\r\nDuration : 1h 48mn\r\nBit rate : 120 Kbps\r\nChannel(s) : 2 channels\r\nChannel positions : Front: L R\r\nSampling rate : 48.0 KHz\r\nFrame rate : 46.875 fps (1024 spf)\r\nCompression mode : Lossy\r\nStream size : 92.8 MiB (3%)\r\nLanguage : English\r\nDefault : Yes\r\nForced : No\r\n\r\nText\r\nID : 3\r\nFormat : UTF-8\r\nCodec ID : S_TEXT/UTF8\r\nCodec ID/Info : UTF-8 Plain Text\r\nDuration : 1h 48mn\r\nBit rate : 50 bps\r\nCount of elements : 1218\r\nStream size : 39.6 KiB (0%)\r\nLanguage : English\r\nDefault : Yes\r\nForced : No\r\n\r\n\r\n\r\n \nhttps://s4.postimg.org/kkm0c2el9/image.jpg\r\n \nhttps://s4.postimg.org/4avu963x9/image.jpg\r\n \nhttps://itunes.apple.com/us/movie/vampires-lucas-rising/id1119428498","torrent":{"xt":"urn:btih:608404f4412be53d6b035114c3020e0959ef64c3","amp;dn":"Vampires%3A+Lucas+Rising+%282016%29+1080P+WEB-DL+AAC2+0+H+264","amp;tr":["udp%3A%2F%2Ftracker.leechers-paradise.org%3A6969","udp%3A%2F%2Fzer0day.ch%3A1337","udp%3A%2F%2Fopen.demonii.com%3A1337","udp%3A%2F%2Ftracker.coppersurfer.tk%3A6969","udp%3A%2F%2Fexodus.desync.com%3A6969"],"infoHash":"608404f4412be53d6b035114c3020e0959ef64c3","infoHashBuffer":{"type":"Buffer","data":[96,132,4,244,65,43,229,61,107,3,81,20,195,2,14,9,89,239,100,195]},"announce":[],"urlList":[]}}